<svg xmlns="http://www.w3.org/2000/svg" width="143.486" height="113.387" viewBox="0 0 143.486 113.387">
  <path id="Path_1" data-name="Path 1" d="M796.993,347.378c-27.081,19.856-83.654,32.078-91.022-2.615-6.2-29.171,1.414-62.806,28.495-82.663s51.61-1,80.3,6.686C844.424,276.728,824.075,327.522,796.993,347.378Z" transform="translate(-697.745 -253.295)" fill="#00267f" opacity="0.2"/>
  <path id="Path_2" data-name="Path 2" d="M721.817,323.119h0a3.245,3.245,0,0,1-3.245-3.244V306.9a3.245,3.245,0,0,0-3.245-3.245H704.362a3.245,3.245,0,0,0-3.245,3.245v12.98a3.244,3.244,0,0,1-3.245,3.244h0a3.245,3.245,0,0,1-3.245-3.244V283.51a3.245,3.245,0,0,1,3.245-3.245h0a3.245,3.245,0,0,1,3.245,3.245V294.7a3.245,3.245,0,0,0,3.245,3.245h10.965a3.245,3.245,0,0,0,3.245-3.245V283.51a3.245,3.245,0,0,1,3.245-3.245h0a3.245,3.245,0,0,1,3.245,3.245v36.365A3.244,3.244,0,0,1,721.817,323.119Z" transform="translate(-694.127 -263.765)" fill="#fff" stroke="#fff" stroke-width="1"/>
  <path id="Path_3" data-name="Path 3" d="M777.254,287.209a2.528,2.528,0,0,1-3.192,1.711,15,15,0,0,0-4.6-.719c-4.683,0-6.638,2.727-6.638,5.248,0,3.345,2.213,4.992,7.2,7.152,6.329,2.779,9.365,6.226,9.365,11.628,0,6.587-4.888,11.526-13.738,11.526a21.9,21.9,0,0,1-7.413-1.322,2.549,2.549,0,0,1-1.572-3.04l.016-.059a2.55,2.55,0,0,1,3.365-1.711,17.535,17.535,0,0,0,5.964,1.089c4.682,0,7.306-2.418,7.306-5.969,0-3.345-2.007-5.4-6.689-7.358-5.866-2.367-9.828-5.918-9.828-11.269,0-6.226,4.991-10.909,12.812-10.909a20.066,20.066,0,0,1,5.936.856,2.548,2.548,0,0,1,1.708,3.144Z" transform="translate(-718.176 -264.908)" fill="#fff" stroke="#fff" stroke-width="1.569"/>
  <path id="Path_4" data-name="Path 4" d="M803.449,286.206h0a2.984,2.984,0,0,1,2.984,2.984v33.394a2.984,2.984,0,0,1-2.984,2.984h0a2.985,2.985,0,0,1-2.985-2.984V289.19A2.985,2.985,0,0,1,803.449,286.206Z" transform="translate(-735.214 -266.071)" fill="#fff" stroke="#fff" stroke-width="1.569"/>
  <path id="Path_5" data-name="Path 5" d="M848.883,327.556h-1.656a2.754,2.754,0,0,1-2.4-1.4l-9.553-17.016a127.588,127.588,0,0,1-6.535-13.327l-.206.051c.309,4.991.412,10.085.412,16.98V324.8a2.753,2.753,0,0,1-2.753,2.752h0a2.753,2.753,0,0,1-2.753-2.752V290.946a2.753,2.753,0,0,1,2.753-2.753h2.124a2.753,2.753,0,0,1,2.4,1.4l9.5,16.816a112.176,112.176,0,0,1,6.38,13.018l.154-.051c-.463-5.351-.617-10.394-.617-16.671V290.946a2.753,2.753,0,0,1,2.752-2.753h0a2.753,2.753,0,0,1,2.753,2.753V324.8A2.753,2.753,0,0,1,848.883,327.556Z" transform="translate(-744.132 -266.843)" fill="#fff" stroke="#fff" stroke-width="1.569"/>
  <path id="Path_6" data-name="Path 6" d="M773.681,368.978h-6.042a2.77,2.77,0,0,0-2.77,2.77v31.721a2.769,2.769,0,0,1-2.77,2.769h-.951a2.769,2.769,0,0,1-2.769-2.769V371.747a2.77,2.77,0,0,0-2.77-2.77h-5.986a2.769,2.769,0,0,1-2.769-2.769h0a2.769,2.769,0,0,1,2.769-2.77h24.057a2.769,2.769,0,0,1,2.769,2.77h0A2.769,2.769,0,0,1,773.681,368.978Z" transform="translate(-714.402 -296.054)" fill="#fff" stroke="#fff" stroke-width="1"/>
  <path id="Path_7" data-name="Path 7" d="M839.974,392.582c0,11.676-5.812,16.613-14.2,16.613-8.075,0-13.527-4.732-13.527-16.459V372.265a2.984,2.984,0,0,1,2.984-2.983h0a2.983,2.983,0,0,1,2.983,2.983V393.1c0,7.87,3.24,11.213,7.766,11.213,4.938,0,8.024-3.395,8.024-11.213v-20.83a2.984,2.984,0,0,1,2.984-2.983h0a2.983,2.983,0,0,1,2.983,2.983Z" transform="translate(-739.789 -298.322)" fill="#fff" stroke="#fff" stroke-width="1.78"/>
  <path id="Path_8" data-name="Path 8" d="M896.28,408.629h-1.656a2.752,2.752,0,0,1-2.4-1.4l-9.549-17.009a127.311,127.311,0,0,1-6.532-13.321l-.206.051c.309,4.989.412,10.081.412,16.974v11.958a2.751,2.751,0,0,1-2.751,2.752h0a2.752,2.752,0,0,1-2.752-2.752V372.033a2.751,2.751,0,0,1,2.752-2.751h2.124a2.752,2.752,0,0,1,2.4,1.4l9.5,16.809A112.12,112.12,0,0,1,893.99,400.5l.155-.052c-.463-5.349-.617-10.39-.617-16.665V372.033a2.751,2.751,0,0,1,2.752-2.751h0a2.751,2.751,0,0,1,2.752,2.751v33.844A2.752,2.752,0,0,1,896.28,408.629Z" transform="translate(-762.536 -298.322)" fill="#fff" stroke="#fff" stroke-width="1.78"/>
  <line id="Line_2" data-name="Line 2" x2="28.197" transform="translate(115.289 21.162)" fill="#fff" stroke="#fff" stroke-miterlimit="10" stroke-width="1"/>
  <line id="Line_3" data-name="Line 3" x2="28.133" transform="translate(0.607 109.826)" fill="#fff" stroke="#fff" stroke-miterlimit="10" stroke-width="1"/>
  <text id="_" data-name="。" transform="translate(0.637 84.322)" fill="#f6f6f6" font-size="17" font-family="YuGothicUI-Regular, Yu Gothic UI"><tspan x="0" y="0">。</tspan></text>
  <text id="_2" data-name="。" transform="translate(124.788 43.78)" fill="#f6f6f6" font-size="17" font-family="YuGothicUI-Regular, Yu Gothic UI"><tspan x="0" y="0">。</tspan></text>
</svg>
